<svg width="34" height="34" viewBox="0 0 34 34" fill="none" xmlns="http://www.w3.org/2000/svg">
<circle cx="17" cy="17" r="17" fill="#50B747"/>
<path d="M22.6035 15.2202L23.3539 14.4414C23.9508 13.8218 24.2862 12.9815 24.2862 12.1053C24.2862 11.2291 23.9508 10.3888 23.3539 9.76922C22.7569 9.14965 21.9473 8.80157 21.1031 8.80157C20.2589 8.80157 19.4492 9.14965 18.8523 9.76922L18.1019 10.5481L11.2033 17.7063C10.7363 18.1919 10.5023 18.4347 10.3016 18.7019C10.0645 19.0172 9.86117 19.3584 9.69526 19.7194C9.55522 20.0252 9.45079 20.3512 9.24194 21.0015L8.35636 23.7581M22.6035 15.2202C22.6035 15.2202 21.0096 15.1228 19.6027 13.6626C18.1958 12.2032 18.1027 10.5481 18.1027 10.5481M22.6035 15.2202L15.7058 22.3785C15.2387 22.8633 15.0047 23.1061 14.7473 23.3145C14.4435 23.5605 14.1148 23.7716 13.767 23.9437C13.4724 24.0891 13.1591 24.1975 12.5317 24.4142L9.87578 25.3334M9.87578 25.3334L9.22656 25.5586C9.07523 25.6112 8.91275 25.619 8.75737 25.5811C8.60199 25.5432 8.45989 25.4611 8.34702 25.3439C8.23416 25.2268 8.15501 25.0793 8.11848 24.918C8.08195 24.7568 8.08948 24.5881 8.14022 24.431L8.35717 23.7572L9.87578 25.3334Z" stroke="white" stroke-width="1.5"/>
</svg>
