<svg width="34" height="35" viewBox="0 0 34 35" fill="none" xmlns="http://www.w3.org/2000/svg">
<circle cx="17" cy="17.9443" r="17" fill="#50B747"/>
<path d="M21.6 10H11.4V13.3056H21.6M22.45 17.4375C22.2246 17.4375 22.0084 17.3504 21.849 17.1955C21.6896 17.0405 21.6 16.8303 21.6 16.6111C21.6 16.3919 21.6896 16.1817 21.849 16.0268C22.0084 15.8718 22.2246 15.7847 22.45 15.7847C22.6754 15.7847 22.8916 15.8718 23.051 16.0268C23.2104 16.1817 23.3 16.3919 23.3 16.6111C23.3 16.8303 23.2104 17.0405 23.051 17.1955C22.8916 17.3504 22.6754 17.4375 22.45 17.4375ZM19.9 23.2222H13.1V19.0903H19.9M22.45 14.1319H10.55C9.8737 14.1319 9.2251 14.3931 8.74688 14.8581C8.26866 15.323 8 15.9536 8 16.6111V21.5694H11.4V24.875H21.6V21.5694H25V16.6111C25 15.9536 24.7313 15.323 24.2531 14.8581C23.7749 14.3931 23.1263 14.1319 22.45 14.1319Z" fill="white"/>
</svg>
