<svg width="34" height="34" viewBox="0 0 34 34" fill="none" xmlns="http://www.w3.org/2000/svg">
<g clip-path="url(#clip0_1435_6)">
<circle cx="17" cy="17" r="17" fill="#0094C4"/>
<path d="M17 12C17.6188 12 18.2123 12.2543 18.6499 12.707C19.0875 13.1597 19.3333 13.7736 19.3333 14.4138C19.3333 15.054 19.0875 15.6679 18.6499 16.1206C18.2123 16.5733 17.6188 16.8276 17 16.8276C16.3812 16.8276 15.7877 16.5733 15.3501 16.1206C14.9125 15.6679 14.6667 15.054 14.6667 14.4138C14.6667 13.7736 14.9125 13.1597 15.3501 12.707C15.7877 12.2543 16.3812 12 17 12ZM12.3333 13.7241C12.7067 13.7241 13.0533 13.8276 13.3533 14.0138C13.2533 15 13.5333 15.9793 14.1067 16.7448C13.7733 17.4069 13.1067 17.8621 12.3333 17.8621C11.8029 17.8621 11.2942 17.6441 10.9191 17.2561C10.544 16.8681 10.3333 16.3418 10.3333 15.7931C10.3333 15.2444 10.544 14.7181 10.9191 14.3301C11.2942 13.9421 11.8029 13.7241 12.3333 13.7241ZM21.6667 13.7241C22.1971 13.7241 22.7058 13.9421 23.0809 14.3301C23.456 14.7181 23.6667 15.2444 23.6667 15.7931C23.6667 16.3418 23.456 16.8681 23.0809 17.2561C22.7058 17.6441 22.1971 17.8621 21.6667 17.8621C20.8933 17.8621 20.2267 17.4069 19.8933 16.7448C20.4746 15.9686 20.7444 14.9905 20.6467 14.0138C20.9467 13.8276 21.2933 13.7241 21.6667 13.7241ZM12.6667 20.7931C12.6667 19.3655 14.6067 18.2069 17 18.2069C19.3933 18.2069 21.3333 19.3655 21.3333 20.7931V22H12.6667V20.7931ZM9 22V20.9655C9 20.0069 10.26 19.2 11.9667 18.9655C11.5733 19.4345 11.3333 20.0828 11.3333 20.7931V22H9ZM25 22H22.6667V20.7931C22.6667 20.0828 22.4267 19.4345 22.0333 18.9655C23.74 19.2 25 20.0069 25 20.9655V22Z" fill="white"/>
</g>
<defs>
<clipPath id="clip0_1435_6">
<rect width="34" height="34" fill="white"/>
</clipPath>
</defs>
</svg>
