<svg width="34" height="34" viewBox="0 0 34 34" fill="none" xmlns="http://www.w3.org/2000/svg">
<circle cx="17" cy="17" r="17" fill="#50B747"/>
<path d="M22.603 15.2202L23.3534 14.4414C23.9503 13.8218 24.2857 12.9815 24.2857 12.1053C24.2857 11.2291 23.9503 10.3888 23.3534 9.76922C22.7564 9.14965 21.9468 8.80157 21.1026 8.80157C20.2584 8.80157 19.4487 9.14965 18.8518 9.76922L18.1014 10.5481L11.2029 17.7063C10.7358 18.1919 10.5018 18.4347 10.3011 18.7019C10.064 19.0172 9.86069 19.3584 9.69477 19.7194C9.55473 20.0252 9.45031 20.3512 9.24146 21.0015L8.35587 23.7581M22.603 15.2202C22.603 15.2202 21.0091 15.1228 19.6022 13.6626C18.1953 12.2032 18.1022 10.5481 18.1022 10.5481M22.603 15.2202L15.7053 22.3785C15.2382 22.8633 15.0042 23.1061 14.7468 23.3145C14.4431 23.5605 14.1143 23.7716 13.7665 23.9437C13.4719 24.0891 13.1586 24.1975 12.5312 24.4142L9.87529 25.3334M9.87529 25.3334L9.22608 25.5586C9.07474 25.6112 8.91226 25.619 8.75688 25.5811C8.60151 25.5432 8.4594 25.4611 8.34654 25.3439C8.23367 25.2268 8.15453 25.0793 8.11799 24.918C8.08146 24.7568 8.08899 24.5881 8.13973 24.431L8.35668 23.7572L9.87529 25.3334Z" stroke="white" stroke-width="1.5"/>
</svg>
