<svg width="111" height="99" viewBox="0 0 111 99" fill="none" xmlns="http://www.w3.org/2000/svg">
<path d="M110.866 38.8954C110.248 38.3992 109.643 37.8879 109.007 37.417C107.521 36.3158 105.971 35.3159 104.333 34.4477C103.102 33.7945 101.846 33.2022 100.55 32.6959C96.2044 30.9999 91.7453 30.1619 87.1747 30.1873C85.901 32.4757 84.3691 34.6274 82.5814 36.6449C79.7783 39.8067 76.5168 42.4014 72.8021 44.4215C68.7507 46.6263 64.4333 48.0237 59.8476 48.5553C58.7385 48.6844 57.6193 48.773 56.5051 48.811C56.1937 48.8211 55.5708 48.8261 55.5708 48.8261H55.5176C55.5176 48.8261 56.1861 50.0919 56.4823 50.7095C57.3357 52.479 58.0497 54.3016 58.5942 56.1875C60.7035 63.4856 60.5693 70.7458 58.1915 77.9553C57.4901 80.0817 56.5836 82.1068 55.5176 84.0307C56.6976 86.1621 58.1181 88.167 59.7362 90.0504C60.6351 91.0959 61.5796 92.0983 62.6051 93.0198C63.2508 93.5969 63.9142 94.1538 64.5726 94.7158C64.8157 94.9234 65.0638 95.1234 65.312 95.3259C66.0843 95.8676 66.8566 96.4068 67.6315 96.9485C67.677 96.9663 67.7277 96.9789 67.7682 97.0068C68.0239 97.1662 68.2772 97.3333 68.5354 97.4877C68.8899 97.7004 69.2495 97.9029 69.6091 98.113C72.8097 93.5438 75.9927 88.9973 79.1857 84.4408C79.1224 84.4028 79.0693 84.3699 79.0135 84.3395C78.4058 84.0155 77.7829 83.7117 77.1904 83.3598C76.1218 82.727 75.1216 81.9979 74.1948 81.1727C73.1769 80.2664 72.2527 79.2741 71.4474 78.173C68.7507 74.4821 67.4643 70.3483 67.5909 65.7842C67.6846 62.4123 68.6291 59.2784 70.3459 56.3774C70.9511 55.3547 71.6525 54.3953 72.4375 53.4966C73.3719 52.4258 74.405 51.4614 75.5495 50.6209C78.5628 48.4034 81.9382 47.1326 85.663 46.8238C89.8411 46.4795 93.7381 47.401 97.349 49.5223C98.7847 50.3653 100.071 51.4133 101.271 52.5625C101.388 52.6739 101.446 52.679 101.545 52.5397C104.657 48.092 107.771 43.6443 110.886 39.1991C110.921 39.1485 110.957 39.0979 111 39.0371C110.952 38.984 110.914 38.9333 110.866 38.8954Z" fill="#FFD100"/>
<path d="M93.7105 55.623C90.8618 53.9498 87.8131 53.4612 84.5871 54.1447C82.255 54.6408 80.2318 55.7369 78.5124 57.395C77.6464 58.2304 76.9172 59.1721 76.3246 60.2125C73.7444 64.7539 74.2685 70.28 77.3679 74.2239C78.2719 75.3757 79.3455 76.3453 80.5888 77.1123C83.0273 78.621 85.6835 79.2514 88.5398 78.9602C91.3201 78.6767 93.751 77.5806 95.8097 75.6896C96.2325 75.3023 96.5997 74.8517 96.9947 74.4315C97.0327 74.391 97.0758 74.3556 97.1163 74.3201C97.4277 73.8771 97.7366 73.4341 98.0481 72.9911C98.1848 72.7304 98.3216 72.4722 98.4583 72.2115C99.2762 70.6521 99.7447 68.989 99.8383 67.2321C100.026 63.7287 98.9597 60.6504 96.6402 58.0178C95.7995 57.0659 94.8145 56.2711 93.7105 55.623ZM90.9732 69.0345C89.5375 71.0824 86.7394 71.5786 84.6884 70.1458C82.6323 68.7105 82.1334 65.9031 83.5742 63.8502C85.01 61.8022 87.808 61.3086 89.8591 62.7389C91.9152 64.1742 92.414 66.9815 90.9732 69.0345Z" fill="#FFD100"/>
<path d="M33.7183 74.229C36.8177 70.285 37.3418 64.7564 34.7616 60.2175C34.169 59.1746 33.4398 58.2354 32.5738 57.4001C30.8544 55.742 28.8312 54.6459 26.4991 54.1497C23.2731 53.4637 20.2269 53.9548 17.3757 55.6281C16.2742 56.2761 15.2867 57.0685 14.4435 58.0279C12.1265 60.6605 11.058 63.7388 11.2453 67.2423C11.339 68.9991 11.8075 70.6597 12.6254 72.2216C12.7621 72.4823 12.8988 72.7405 13.0356 73.0012C13.347 73.4442 13.656 73.8872 13.9674 74.3302C14.0079 74.3682 14.0535 74.4011 14.089 74.4416C14.484 74.8618 14.8511 75.3124 15.274 75.6997C17.3352 77.5882 19.7635 78.6868 22.5439 78.9703C25.4001 79.2615 28.0564 78.6311 30.4949 77.1224C31.7407 76.3478 32.8118 75.3808 33.7183 74.229ZM26.3978 70.1458C24.3468 71.5761 21.5487 71.0824 20.113 69.0345C18.6722 66.9815 19.1685 64.1742 21.2271 62.7388C23.2782 61.3086 26.0762 61.8048 27.512 63.8501C28.9528 65.9031 28.4539 68.713 26.3978 70.1458Z" fill="#00B1EB"/>
<path d="M52.4057 56.185C52.9501 54.2991 53.6667 52.4765 54.5175 50.707C54.8138 50.0893 55.5177 48.8261 55.5177 48.8261H55.4747C55.4747 48.8261 54.8062 48.8211 54.4947 48.8084C53.3781 48.7704 52.2614 48.6793 51.1523 48.5527C46.5665 48.0211 42.2517 46.6263 38.1977 44.4189C34.4856 42.3989 31.2216 39.8041 28.4185 36.6424C26.6308 34.6248 25.0178 32.4706 23.7441 30.1847C19.1761 30.1619 14.7954 30.9973 10.4502 32.6934C9.15378 33.1996 7.89783 33.792 6.66719 34.4451C5.03141 35.3134 3.4792 36.3158 1.99281 37.4145C1.35724 37.8853 0.752054 38.3967 0.134205 38.8928C0.0860941 38.9308 0.0506433 38.9814 0 39.0371C0.0405147 39.0953 0.075965 39.146 0.113947 39.1991C3.22851 43.6443 6.34308 48.092 9.45511 52.5397C9.55386 52.679 9.6121 52.6714 9.72858 52.5625C10.9314 51.4133 12.2152 50.3652 13.6509 49.5223C17.2618 47.4009 21.1588 46.4795 25.3369 46.8238C29.0642 47.1301 32.437 48.4009 35.4503 50.6209C36.5949 51.4639 37.628 52.4258 38.5624 53.4966C39.3473 54.3953 40.0487 55.3522 40.6539 56.3774C42.3707 59.2759 43.3127 62.4123 43.4089 65.7842C43.5381 70.3483 42.2492 74.4821 39.5524 78.173C38.7472 79.2741 37.823 80.269 36.805 81.1727C35.8783 81.9979 34.8755 82.727 33.8095 83.3598C33.217 83.7117 32.594 84.013 31.9863 84.3395C31.9306 84.3699 31.88 84.4028 31.8141 84.4408C35.0072 88.9973 38.1901 93.5438 41.3908 98.113C41.7504 97.9029 42.1099 97.7004 42.4644 97.4877C42.7227 97.3333 42.9759 97.1662 43.2317 97.0068C43.2722 96.9814 43.3228 96.9688 43.3684 96.9485C44.1407 96.4068 44.913 95.8676 45.6879 95.3259C45.9335 95.1234 46.1842 94.9234 46.4273 94.7158C47.0856 94.1538 47.7491 93.5969 48.3948 93.0198C49.4228 92.0983 50.3673 91.0959 51.2637 90.0504C52.8792 88.167 54.3377 86.1596 55.5177 84.0307C54.4517 82.1068 53.5097 80.0816 52.8083 77.9553C50.4306 70.7432 50.2964 63.4831 52.4057 56.185Z" fill="#00B1EB"/>
<path d="M54.2844 25.1193C55.4771 25.2332 56.6672 25.175 57.8497 24.9447C60.1945 24.489 62.2532 23.4613 63.9978 21.8361C66.411 19.5882 67.7556 16.8112 68.0189 13.5178C68.1202 12.2445 68.0366 10.9813 67.7353 9.74092C66.9073 6.33362 64.9955 3.69335 62.0177 1.83781C60.5237 0.90625 58.8955 0.336679 57.1458 0.111382C56.8546 0.0734104 56.5634 0.0379714 56.2722 0C55.7303 0 55.191 0 54.6491 0C54.5959 0.0126571 54.5402 0.0278448 54.487 0.035439C53.9173 0.116445 53.3374 0.159479 52.7753 0.283518C50.0456 0.885998 47.754 2.2479 45.9258 4.36164C44.0469 6.53361 43.0416 9.0701 42.8796 11.9331C42.796 13.3912 42.9758 14.8266 43.4012 16.2264C44.8572 21.026 49.0834 24.6257 54.2844 25.1193ZM55.4594 8.06512C57.9688 8.06512 59.9844 10.0801 59.9793 12.5888C59.9742 15.0873 57.9637 17.0972 55.4644 17.0972C52.9576 17.0998 50.9395 15.0797 50.9445 12.5736C50.9496 10.0725 52.9576 8.06765 55.4594 8.06512Z" fill="#2274AC"/>
<path d="M91.7073 11.4294C91.687 10.6396 91.6136 9.8523 91.5756 9.05491C91.5706 8.99415 91.5503 8.93593 91.5351 8.86252C91.4617 8.86252 91.3984 8.86252 91.3376 8.86252C85.9086 8.86252 80.4772 8.86505 75.0482 8.85999C74.8785 8.85746 74.8507 8.91315 74.8735 9.07009C75.1242 10.713 75.2457 12.366 75.114 14.0266C74.7798 18.2009 73.301 21.9196 70.622 25.1446C68.2316 28.0203 65.2563 30.0556 61.7087 31.2504C60.3616 31.7036 58.9791 31.9972 57.5661 32.1491C56.3785 32.2757 55.1909 32.301 54.0059 32.2099C50.6457 31.9542 47.5337 30.9264 44.7179 29.0709C40.9045 26.5597 38.2533 23.1322 36.777 18.8085C36.3364 17.5175 36.0503 16.191 35.8933 14.8367C35.749 13.6039 35.7236 12.366 35.8199 11.1281C35.873 10.4396 35.9794 9.75611 36.063 9.07263C36.0706 9.01187 36.0731 8.94859 36.0781 8.87518C30.5124 8.87518 24.9594 8.87518 19.381 8.87518C19.3456 9.29033 19.3076 9.70042 19.2772 10.113C19.257 10.4143 19.2494 10.7155 19.2316 11.0168C19.2291 11.0649 19.2089 11.113 19.1987 11.1611C19.1987 12.1053 19.1987 13.047 19.1987 13.9912C19.2241 14.3101 19.2443 14.6291 19.2747 14.9455C19.3608 15.8088 19.4342 16.672 19.538 17.5301C19.7026 18.8996 19.9837 20.2463 20.3255 21.5829C21.1055 24.6206 22.2424 27.4913 23.744 30.1847C24.2048 30.1872 34.6525 30.291 41.6717 34.9058C51.1218 40.237 55.3758 48.5451 55.5176 48.8287C55.5505 48.8287 55.4847 48.8287 55.5176 48.8287C56.295 47.4313 57.2192 46.0871 58.184 44.8062C58.855 43.9152 59.5691 43.052 60.311 42.2166C63.3774 38.7663 66.9959 36.0323 71.1284 33.9793C74.914 32.0985 78.9123 30.9138 83.1106 30.4328C84.4754 30.2758 85.8301 30.1948 87.1747 30.1872C88.7523 27.352 89.9373 24.3118 90.7274 21.0665C91.0565 19.7147 91.292 18.3452 91.4617 16.9631C91.687 15.1227 91.7579 13.2773 91.7073 11.4294Z" fill="#2274AC"/>
</svg>
