<svg width="340" height="382" viewBox="0 0 340 382" fill="none" xmlns="http://www.w3.org/2000/svg">
<path d="M32.8528 310.273H47.4377L59.8099 340.442H60.3809L72.7531 310.273H87.3379V359H75.8699V329.069H75.4654L63.7595 358.691H56.4313L44.7254 328.902H44.3209V359H32.8528V310.273ZM101.636 359.619C99.3044 359.619 97.2345 359.23 95.4262 358.453C93.6339 357.66 92.2142 356.47 91.1674 354.884C90.1363 353.282 89.6208 351.275 89.6208 348.864C89.6208 346.834 89.9777 345.121 90.6915 343.725C91.4053 342.329 92.3887 341.195 93.6418 340.323C94.8949 339.45 96.3383 338.792 97.972 338.348C99.6058 337.888 101.351 337.579 103.206 337.42C105.284 337.23 106.958 337.031 108.227 336.825C109.496 336.603 110.416 336.294 110.987 335.897C111.573 335.485 111.867 334.906 111.867 334.161V334.042C111.867 332.82 111.447 331.876 110.606 331.21C109.765 330.544 108.631 330.211 107.204 330.211C105.665 330.211 104.428 330.544 103.492 331.21C102.556 331.876 101.961 332.796 101.707 333.97L90.977 333.589C91.2943 331.369 92.1111 329.386 93.4277 327.641C94.76 325.881 96.5841 324.501 98.9 323.501C101.232 322.486 104.031 321.979 107.299 321.979C109.63 321.979 111.78 322.256 113.747 322.811C115.713 323.351 117.426 324.144 118.886 325.191C120.345 326.222 121.471 327.491 122.264 328.998C123.073 330.504 123.478 332.225 123.478 334.161V359H112.533V353.908H112.248C111.597 355.146 110.765 356.192 109.749 357.049C108.75 357.906 107.568 358.548 106.204 358.976C104.856 359.404 103.333 359.619 101.636 359.619ZM105.229 352.005C106.482 352.005 107.608 351.751 108.607 351.244C109.622 350.736 110.431 350.038 111.034 349.15C111.637 348.246 111.938 347.199 111.938 346.009V342.536C111.605 342.71 111.201 342.869 110.725 343.011C110.265 343.154 109.757 343.289 109.202 343.416C108.647 343.543 108.076 343.654 107.489 343.749C106.902 343.844 106.339 343.931 105.8 344.011C104.705 344.185 103.77 344.455 102.992 344.82C102.231 345.184 101.644 345.66 101.232 346.247C100.835 346.818 100.637 347.5 100.637 348.293C100.637 349.499 101.065 350.419 101.922 351.053C102.794 351.688 103.896 352.005 105.229 352.005ZM138.876 338.158V359H127.242V322.455H138.305V329.164H138.71C139.519 326.928 140.899 325.175 142.85 323.906C144.801 322.621 147.124 321.979 149.821 321.979C152.391 321.979 154.619 322.558 156.507 323.716C158.41 324.858 159.885 326.46 160.932 328.522C161.995 330.568 162.518 332.963 162.502 335.707V359H150.868V337.991C150.884 335.961 150.368 334.375 149.321 333.233C148.29 332.091 146.855 331.52 145.015 331.52C143.793 331.52 142.715 331.789 141.779 332.328C140.859 332.852 140.145 333.605 139.638 334.589C139.146 335.572 138.892 336.762 138.876 338.158ZM183.439 359.69C179.616 359.69 176.317 358.937 173.541 357.43C170.781 355.907 168.656 353.742 167.165 350.934C165.689 348.111 164.952 344.756 164.952 340.87C164.952 337.095 165.697 333.796 167.188 330.972C168.679 328.133 170.781 325.928 173.493 324.358C176.206 322.772 179.402 321.979 183.082 321.979C185.683 321.979 188.062 322.383 190.22 323.192C192.377 324.001 194.241 325.199 195.811 326.785C197.381 328.371 198.603 330.33 199.475 332.662C200.347 334.977 200.783 337.634 200.783 340.632V343.535H169.02V336.778H189.958C189.942 335.54 189.649 334.438 189.078 333.471C188.507 332.503 187.721 331.75 186.722 331.21C185.739 330.655 184.605 330.377 183.32 330.377C182.019 330.377 180.853 330.671 179.822 331.258C178.791 331.829 177.974 332.614 177.372 333.613C176.769 334.597 176.452 335.715 176.42 336.968V343.844C176.42 345.335 176.713 346.644 177.3 347.77C177.887 348.88 178.72 349.745 179.798 350.363C180.877 350.982 182.162 351.291 183.653 351.291C184.684 351.291 185.62 351.148 186.46 350.863C187.301 350.577 188.023 350.157 188.625 349.602C189.228 349.047 189.68 348.365 189.982 347.556L200.665 347.865C200.22 350.26 199.245 352.346 197.738 354.123C196.247 355.883 194.288 357.255 191.861 358.239C189.434 359.206 186.627 359.69 183.439 359.69ZM213.678 359.619C211.346 359.619 209.276 359.23 207.468 358.453C205.676 357.66 204.256 356.47 203.209 354.884C202.178 353.282 201.663 351.275 201.663 348.864C201.663 346.834 202.02 345.121 202.733 343.725C203.447 342.329 204.431 341.195 205.684 340.323C206.937 339.45 208.38 338.792 210.014 338.348C211.648 337.888 213.392 337.579 215.248 337.42C217.326 337.23 219 337.031 220.268 336.825C221.537 336.603 222.457 336.294 223.028 335.897C223.615 335.485 223.909 334.906 223.909 334.161V334.042C223.909 332.82 223.488 331.876 222.648 331.21C221.807 330.544 220.673 330.211 219.245 330.211C217.707 330.211 216.47 330.544 215.534 331.21C214.598 331.876 214.003 332.796 213.749 333.97L203.019 333.589C203.336 331.369 204.153 329.386 205.469 327.641C206.802 325.881 208.626 324.501 210.942 323.501C213.273 322.486 216.073 321.979 219.341 321.979C221.672 321.979 223.821 322.256 225.788 322.811C227.755 323.351 229.468 324.144 230.928 325.191C232.387 326.222 233.513 327.491 234.306 328.998C235.115 330.504 235.52 332.225 235.52 334.161V359H224.575V353.908H224.289C223.639 355.146 222.806 356.192 221.791 357.049C220.792 357.906 219.61 358.548 218.246 358.976C216.898 359.404 215.375 359.619 213.678 359.619ZM217.271 352.005C218.524 352.005 219.65 351.751 220.649 351.244C221.664 350.736 222.473 350.038 223.076 349.15C223.679 348.246 223.98 347.199 223.98 346.009V342.536C223.647 342.71 223.243 342.869 222.767 343.011C222.307 343.154 221.799 343.289 221.244 343.416C220.689 343.543 220.118 343.654 219.531 343.749C218.944 343.844 218.381 343.931 217.842 344.011C216.747 344.185 215.811 344.455 215.034 344.82C214.273 345.184 213.686 345.66 213.273 346.247C212.877 346.818 212.679 347.5 212.679 348.293C212.679 349.499 213.107 350.419 213.963 351.053C214.836 351.688 215.938 352.005 217.271 352.005ZM271.189 333.613L260.507 333.899C260.395 333.137 260.094 332.463 259.602 331.876C259.111 331.274 258.468 330.806 257.675 330.473C256.898 330.124 255.994 329.949 254.963 329.949C253.615 329.949 252.465 330.219 251.513 330.758C250.577 331.297 250.117 332.027 250.133 332.947C250.117 333.661 250.403 334.279 250.989 334.803C251.592 335.326 252.663 335.747 254.201 336.064L261.244 337.396C264.892 338.094 267.605 339.252 269.381 340.87C271.174 342.488 272.078 344.629 272.094 347.294C272.078 349.8 271.332 351.981 269.857 353.837C268.398 355.693 266.399 357.136 263.861 358.167C261.323 359.182 258.421 359.69 255.153 359.69C249.935 359.69 245.819 358.619 242.805 356.478C239.807 354.321 238.094 351.434 237.666 347.817L249.157 347.532C249.411 348.864 250.069 349.879 251.132 350.577C252.195 351.275 253.551 351.624 255.201 351.624C256.692 351.624 257.905 351.347 258.841 350.792C259.777 350.236 260.253 349.499 260.269 348.579C260.253 347.754 259.888 347.096 259.174 346.604C258.46 346.096 257.342 345.7 255.819 345.414L249.443 344.201C245.779 343.535 243.051 342.306 241.258 340.513C239.466 338.705 238.578 336.405 238.594 333.613C238.578 331.171 239.228 329.085 240.545 327.356C241.861 325.611 243.733 324.279 246.16 323.359C248.586 322.439 251.449 321.979 254.749 321.979C259.698 321.979 263.6 323.018 266.455 325.096C269.31 327.158 270.888 329.997 271.189 333.613ZM281.586 372.705C280.19 372.705 278.873 372.594 277.636 372.371C276.399 372.165 275.336 371.888 274.448 371.539L277.017 363.092C278.159 363.473 279.19 363.695 280.11 363.759C281.046 363.822 281.847 363.671 282.513 363.306C283.196 362.958 283.719 362.331 284.084 361.427L284.536 360.332L271.545 322.455H283.727L290.46 348.531H290.841L297.669 322.455H309.923L296.147 362.498C295.48 364.496 294.537 366.257 293.315 367.779C292.11 369.318 290.547 370.524 288.628 371.396C286.725 372.268 284.377 372.705 281.586 372.705Z" fill="#007CC4"/>
<path d="M339.589 119.139C337.696 117.619 335.843 116.053 333.896 114.611C329.343 111.238 324.596 108.175 319.578 105.515C315.808 103.515 311.961 101.7 307.99 100.15C294.681 94.9545 281.022 92.3879 267.022 92.4655C263.121 99.475 258.428 106.066 252.952 112.246C244.366 121.93 234.376 129.878 222.998 136.066C210.588 142.819 197.364 147.1 183.317 148.728C179.92 149.123 176.492 149.395 173.079 149.511C172.125 149.542 170.217 149.558 170.217 149.558H170.054C170.054 149.558 172.102 153.434 173.009 155.326C175.623 160.746 177.81 166.329 179.478 172.106C185.939 194.46 185.528 216.699 178.245 238.782C176.096 245.295 173.32 251.498 170.054 257.391C173.669 263.92 178.02 270.061 182.976 275.83C185.729 279.032 188.623 282.103 191.764 284.925C193.742 286.693 195.774 288.399 197.79 290.12C198.535 290.756 199.295 291.369 200.055 291.989C202.421 293.648 204.786 295.3 207.16 296.959C207.299 297.014 207.455 297.052 207.579 297.138C208.362 297.626 209.138 298.138 209.929 298.611C211.015 299.262 212.116 299.883 213.217 300.526C223.021 286.53 232.771 272.604 242.551 258.647C242.357 258.531 242.194 258.43 242.024 258.337C240.162 257.345 238.254 256.414 236.439 255.336C233.166 253.398 230.103 251.165 227.264 248.637C224.146 245.861 221.315 242.822 218.848 239.449C210.588 228.143 206.648 215.481 207.036 201.501C207.323 191.173 210.216 181.573 215.474 172.687C217.328 169.555 219.477 166.616 221.881 163.863C224.743 160.584 227.908 157.629 231.413 155.055C240.643 148.263 250.982 144.37 262.392 143.424C275.189 142.37 287.126 145.192 298.186 151.69C302.584 154.272 306.524 157.482 310.201 161.002C310.557 161.343 310.736 161.359 311.038 160.933C320.571 147.309 330.111 133.685 339.651 120.069C339.759 119.914 339.868 119.759 340 119.573C339.853 119.41 339.736 119.255 339.589 119.139Z" fill="#FFD100"/>
<path d="M287.041 170.377C278.315 165.251 268.977 163.755 259.095 165.849C251.952 167.368 245.755 170.726 240.488 175.805C237.836 178.363 235.602 181.248 233.787 184.435C225.883 198.345 227.489 215.272 236.982 227.353C239.751 230.881 243.04 233.85 246.848 236.2C254.318 240.821 262.454 242.752 271.203 241.86C279.719 240.992 287.165 237.634 293.471 231.842C294.766 230.656 295.891 229.276 297.101 227.988C297.217 227.864 297.349 227.756 297.473 227.647C298.427 226.29 299.373 224.933 300.327 223.576C300.746 222.778 301.165 221.987 301.584 221.188C304.089 216.412 305.524 211.317 305.811 205.936C306.385 195.205 303.119 185.776 296.015 177.712C293.44 174.797 290.423 172.362 287.041 170.377ZM278.656 211.457C274.259 217.73 265.688 219.25 259.406 214.861C253.108 210.465 251.58 201.865 255.993 195.577C260.391 189.304 268.961 187.792 275.244 192.173C281.542 196.57 283.07 205.169 278.656 211.457Z" fill="#FFD100"/>
<path d="M103.281 227.368C112.775 215.287 114.38 198.353 106.477 184.45C104.662 181.256 102.428 178.379 99.7754 175.82C94.509 170.741 88.3118 167.384 81.1683 165.864C71.287 163.763 61.9563 165.267 53.2228 170.392C49.8489 172.377 46.824 174.804 44.2411 177.743C37.1442 185.807 33.8711 195.236 34.4451 205.967C34.7321 211.348 36.167 216.435 38.6722 221.219C39.091 222.018 39.5099 222.809 39.9287 223.607C40.8827 224.964 41.829 226.321 42.783 227.678C42.9071 227.794 43.0467 227.895 43.1553 228.019C44.3652 229.307 45.4899 230.687 46.7852 231.873C53.0987 237.657 60.5369 241.023 69.0532 241.891C77.8021 242.783 85.9384 240.852 93.4076 236.231C97.2236 233.858 100.504 230.896 103.281 227.368ZM80.8581 214.861C74.5756 219.242 66.005 217.73 61.6072 211.457C57.194 205.169 58.7142 196.569 65.02 192.173C71.3025 187.792 79.8731 189.312 84.2708 195.577C88.6841 201.865 87.1561 210.472 80.8581 214.861Z" fill="#00B1EB"/>
<path d="M160.522 172.098C162.19 166.321 164.385 160.739 166.991 155.319C167.898 153.427 170.054 149.558 170.054 149.558H169.922C169.922 149.558 167.875 149.542 166.921 149.503C163.5 149.387 160.08 149.108 156.683 148.72C142.636 147.092 129.42 142.819 117.002 136.058C105.631 129.87 95.6337 121.923 87.0476 112.238C81.5718 106.058 76.6311 99.4595 72.7297 92.4577C58.7376 92.3879 45.3194 94.9467 32.0098 100.142C28.0386 101.693 24.1915 103.507 20.422 105.508C15.4115 108.167 10.657 111.238 6.10412 114.603C4.15731 116.045 2.30359 117.611 0.411079 119.131C0.263712 119.247 0.155124 119.403 0 119.573C0.124099 119.751 0.232685 119.907 0.349028 120.069C9.88913 133.685 19.4292 147.309 28.9616 160.932C29.2641 161.359 29.4425 161.336 29.7993 161.002C33.4834 157.482 37.4158 154.272 41.8136 151.69C52.8739 145.192 64.8107 142.37 77.6084 143.424C89.0255 144.362 99.3567 148.255 108.587 155.055C112.092 157.637 115.257 160.584 118.119 163.863C120.523 166.616 122.672 169.547 124.526 172.687C129.784 181.566 132.669 191.173 132.964 201.501C133.36 215.481 129.412 228.143 121.152 239.449C118.685 242.822 115.854 245.869 112.736 248.637C109.897 251.165 106.826 253.398 103.561 255.336C101.746 256.414 99.8376 257.337 97.9761 258.337C97.8055 258.43 97.6503 258.531 97.4487 258.647C107.229 272.604 116.979 286.53 126.783 300.526C127.884 299.883 128.985 299.262 130.071 298.611C130.862 298.138 131.638 297.626 132.421 297.138C132.545 297.06 132.701 297.021 132.84 296.959C135.206 295.3 137.571 293.649 139.945 291.989C140.697 291.369 141.465 290.756 142.21 290.12C144.226 288.399 146.258 286.693 148.236 284.925C151.385 282.103 154.278 279.032 157.024 275.83C161.972 270.061 166.44 263.912 170.054 257.391C166.789 251.498 163.904 245.295 161.755 238.782C154.472 216.691 154.061 194.453 160.522 172.098Z" fill="#00B1EB"/>
<path d="M166.277 76.9421C169.93 77.291 173.576 77.1127 177.198 76.4071C184.38 75.0114 190.686 71.8633 196.03 66.8853C203.421 59.9998 207.54 51.4937 208.346 41.4059C208.657 37.5057 208.401 33.6365 207.478 29.8371C204.942 19.4003 199.086 11.313 189.964 5.62934C185.388 2.7759 180.401 1.03127 175.041 0.341169C174.149 0.224861 173.258 0.116309 172.366 0C170.706 0 169.054 0 167.394 0C167.231 0.0387696 167.06 0.0852902 166.897 0.108552C165.152 0.356677 163.376 0.488493 161.654 0.868435C153.293 2.71387 146.274 6.88547 140.674 13.36C134.919 20.0128 131.84 27.7823 131.343 36.552C131.087 41.0182 131.638 45.4147 132.941 49.7026C137.401 64.404 150.346 75.4301 166.277 76.9421ZM169.876 24.704C177.562 24.704 183.736 30.8761 183.721 38.5602C183.705 46.2133 177.547 52.3699 169.891 52.3699C162.213 52.3777 156.031 46.1901 156.047 38.5137C156.062 30.8528 162.213 24.7117 169.876 24.704Z" fill="#2274AC"/>
<path d="M280.906 35.0089C280.844 32.5897 280.619 30.1782 280.502 27.7357C280.487 27.5496 280.425 27.3713 280.378 27.1464C280.153 27.1464 279.959 27.1464 279.773 27.1464C263.144 27.1464 246.507 27.1542 229.878 27.1387C229.358 27.1309 229.273 27.3015 229.343 27.7822C230.11 32.8145 230.483 37.8778 230.079 42.9644C229.056 55.7506 224.526 67.1411 216.32 77.0196C208.998 85.8281 199.885 92.0622 189.018 95.722C184.892 97.11 180.657 98.0094 176.329 98.4747C172.691 98.8624 169.054 98.9399 165.424 98.6608C155.131 97.8776 145.599 94.7296 136.974 89.0459C125.293 81.3541 117.173 70.8552 112.651 57.6116C111.301 53.6571 110.425 49.594 109.944 45.4457C109.502 41.6695 109.424 37.8778 109.719 34.0862C109.882 31.9771 110.208 29.8836 110.464 27.79C110.487 27.6039 110.495 27.4101 110.51 27.1852C93.462 27.1852 76.4527 27.1852 59.3658 27.1852C59.2572 28.4568 59.1409 29.713 59.0478 30.9769C58.9858 31.8996 58.9625 32.8223 58.9082 33.745C58.9005 33.8923 58.8384 34.0397 58.8074 34.187C58.8074 37.0792 58.8074 39.9637 58.8074 42.8559C58.8849 43.8329 58.947 44.8099 59.0401 45.7791C59.3038 48.4232 59.5287 51.0673 59.8467 53.6958C60.3509 57.8907 61.2118 62.0158 62.2589 66.1099C64.6478 75.4145 68.1303 84.2075 72.7297 92.4577C74.1413 92.4654 106.143 92.7833 127.644 106.919C156.59 123.248 169.62 148.697 170.054 149.565C170.155 149.565 169.953 149.565 170.054 149.565C172.435 145.285 175.266 141.168 178.222 137.244C180.277 134.515 182.464 131.871 184.737 129.312C194.129 118.743 205.213 110.369 217.871 104.081C229.467 98.3196 241.714 94.6908 254.573 93.2175C258.754 92.7368 262.904 92.4887 267.022 92.4654C271.854 83.781 275.484 74.4686 277.904 64.5281C278.912 60.3875 279.634 56.1926 280.153 51.959C280.844 46.3219 281.061 40.6693 280.906 35.0089Z" fill="#2274AC"/>
</svg>
